<svg xmlns:dc="http://purl.org/dc/elements/1.1/" xmlns:cc="http://creativecommons.org/ns#" xmlns:rdf="http://www.w3.org/1999/02/22-rdf-syntax-ns#" xmlns:svg="http://www.w3.org/2000/svg" xmlns="http://www.w3.org/2000/svg" viewBox="0 0 2036.175 873.59998" height="64" width="147" xml:space="preserve" version="1.1" id="svg4155">
    <metadata id="metadata4161"><rdf:rdf><cc:work rdf:about=""><dc:format>image/svg+xml</dc:format><dc:type rdf:resource="http://purl.org/dc/dcmitype/StillImage"></dc:type><dc:title></dc:title></cc:work></rdf:rdf></metadata><defs id="defs4159"></defs><g transform="matrix(1.25,0,0,-1.25,0,873.6)" id="g4163"><g transform="scale(0.111043,0.111043)" id="g4165"><path id="path4167" style="fill:#e94e55;fill-opacity:1;fill-rule:nonzero;stroke:none" d="m 1209.73,1044.64 c 8.34,-29.12 41.58,-29.12 49.92,0 l 440.64,1820.89 c 12.48,49.9 41.58,70.69 87.32,70.69 l 611.11,0 c 45.72,0 83.13,-37.44 83.13,-83.15 l 0,-2743.824 c 0,-45.6952 -37.41,-83.1562 -83.13,-83.1562 l -365.85,0 c -45.73,0 -83.16,37.461 -83.16,83.1562 l 0,1567.254 c 0,25 -29.07,33.25 -37.41,8.34 L 1488.27,96.793 c -12.47,-49.918 -41.55,-70.7032 -87.3,-70.7032 l -328.43,0 c -45.7,0 -74.825,20.7852 -87.282,70.7032 L 569.527,1684.84 c -8.316,24.91 -37.41,16.66 -37.41,-8.34 l 0,-1567.254 c 0,-45.6952 -37.41,-83.1562 -83.16,-83.1562 l -365.832,0 C 37.4102,26.0898 0,63.5508 0,109.246 L 0,2853.07 c 0,45.71 37.4102,83.15 83.125,83.15 l 615.277,0 c 45.75,0 74.825,-20.79 87.293,-70.69 L 1209.73,1044.64"></path><path id="path4169" style="fill:#e94e55;fill-opacity:1;fill-rule:nonzero;stroke:none" d="m 6234.65,1226.87 c -512.64,114.84 -918.68,340.37 -918.68,869.5 0,483.95 397.83,865.38 939.19,865.38 549.59,0 943.32,-381.43 943.32,-865.38 l 0,-61.55 c 0,-45.14 -36.91,-82.03 -82.03,-82.03 l -414.22,0 c -45.12,0 -82.03,36.89 -82.03,82.03 l 0,61.55 c 0,164 -131.24,307.58 -365.04,307.58 -229.64,0 -356.82,-123.07 -356.82,-287.07 0,-155.87 151.77,-254.34 365.04,-295.37 570.11,-114.84 992.53,-352.67 992.53,-922.733 0,-533.172 -418.36,-898.210594 -1000.75,-898.210594 -565.96,0 -976.11,397.820594 -976.11,898.210594 l 0,123.003 c 0,45.17 36.92,82.03 82.04,82.03 l 414.23,0 c 45.13,0 82.06,-36.86 82.06,-82.03 l 0,-123.003 c 0,-188.656 143.51,-336.371 397.78,-336.371 246.09,0 406.07,143.563 406.07,336.371 0,176.313 -118.96,258.343 -426.58,328.093"></path><path id="path4171" style="fill:#e94e55;fill-opacity:1;fill-rule:nonzero;stroke:none" d="m 3865.43,1958.05 c 0,-241.37 -199.55,-440.92 -474.81,-440.92 -271.39,0 -470.87,199.55 -470.87,440.92 l 0,937.7 c 0,21.91 17.95,39.92 39.91,39.92 l 201.49,0 c 21.94,0 39.89,-18.01 39.89,-39.92 l 0,-937.7 c 0,-87.8 71.84,-159.64 189.58,-159.64 121.66,0 193.45,71.84 193.45,159.64 l 0,937.7 c 0,21.91 18,39.92 39.93,39.92 l 201.54,0 c 21.89,0 39.89,-18.01 39.89,-39.92 l 0,-937.7"></path><path id="path4173" style="fill:#e94e55;fill-opacity:1;fill-rule:nonzero;stroke:none" d="m 4936.7,1958.05 c 0,-241.37 -199.55,-440.92 -474.83,-440.92 -271.37,0 -470.87,199.55 -470.87,440.92 l 0,937.7 c 0,21.91 17.95,39.92 39.92,39.92 l 201.5,0 c 21.94,0 39.89,-18.01 39.89,-39.92 l 0,-937.7 c 0,-87.8 71.84,-159.64 189.56,-159.64 121.68,0 193.47,71.84 193.47,159.64 l 0,937.7 c 0,21.91 18,39.92 39.93,39.92 l 201.52,0 c 21.92,0 39.91,-18.01 39.91,-39.92 l 0,-937.7"></path><path id="path4175" style="fill:#e94e55;fill-opacity:1;fill-rule:nonzero;stroke:none" d="M 3865.43,440.918 C 3865.43,199.543 3665.88,0 3390.62,0 3119.23,0 2919.75,199.543 2919.75,440.918 l 0,937.722 c 0,21.88 17.95,39.88 39.91,39.88 l 201.49,0 c 21.94,0 39.89,-18 39.89,-39.88 l 0,-937.722 c 0,-87.801 71.84,-159.629 189.58,-159.629 121.66,0 193.45,71.828 193.45,159.629 l 0,937.722 c 0,21.88 18,39.88 39.93,39.88 l 201.54,0 c 21.89,0 39.89,-18 39.89,-39.88 l 0,-937.722"></path><path id="path4177" style="fill:#e94e55;fill-opacity:1;fill-rule:nonzero;stroke:none" d="M 4936.7,440.918 C 4936.7,199.543 4737.15,0 4461.87,0 4190.5,0 3991,199.543 3991,440.918 l 0,937.722 c 0,21.88 17.95,39.88 39.92,39.88 l 201.5,0 c 21.94,0 39.89,-18 39.89,-39.88 l 0,-937.722 c 0,-87.801 71.84,-159.629 189.56,-159.629 121.68,0 193.47,71.828 193.47,159.629 l 0,937.722 c 0,21.88 18,39.88 39.93,39.88 l 201.52,0 c 21.92,0 39.91,-18 39.91,-39.88 l 0,-937.722"></path><path id="path4179" style="fill:#e94e55;fill-opacity:1;fill-rule:nonzero;stroke:none" d="m 13397.4,1044.07 c 8.2,-29.12 41.5,-29.12 49.8,0 l 440.8,1820.88 c 12.4,49.92 41.6,70.72 87.2,70.72 l 611.1,0 c 45.7,0 83.2,-37.46 83.2,-83.17 l 0,-2743.82 c 0,-45.7112 -37.5,-83.1566 -83.2,-83.1566 l -365.8,0 c -45.7,0 -83.2,37.4454 -83.2,83.1566 l 0,1567.27 c 0,24.97 -29,33.24 -37.4,8.32 l -424,-1588.0356 c -12.5,-49.918 -41.5,-70.711 -87.3,-70.711 l -328.4,0 c -45.8,0 -74.9,20.793 -87.4,70.711 L 12757.2,1684.27 c -8.4,24.92 -37.4,16.65 -37.4,-8.32 l 0,-1567.27 c 0,-45.7112 -37.5,-83.1566 -83.2,-83.1566 l -365.9,0 c -45.6,0 -83.1,37.4454 -83.1,83.1566 l 0,2743.82 c 0,45.71 37.5,83.17 83.1,83.17 l 615.3,0 c 45.8,0 74.8,-20.8 87.4,-70.72 l 424,-1820.88"></path><path id="path4181" style="fill:#e94e55;fill-opacity:1;fill-rule:nonzero;stroke:none" d="M 11741,912.512 C 11741,412.957 11328.1,0 10758.4,0 10196.9,0 9783.96,412.957 9783.96,912.512 l 0,1940.558 c 0,45.46 37.2,82.6 82.67,82.6 l 417.07,0 c 45.3,0 82.5,-37.14 82.5,-82.6 l 0,-1940.558 c 0,-181.641 148.6,-330.285 392.2,-330.285 251.8,0 400.5,148.644 400.5,330.285 l 0,1940.558 c 0,45.46 37.2,82.6 82.6,82.6 l 417.1,0 c 45.3,0 82.4,-37.14 82.4,-82.6 l 0,-1940.558"></path><path id="path4183" style="fill:#e94e55;fill-opacity:1;fill-rule:nonzero;stroke:none" d="m 7869.59,1839.54 c 0,-11.91 8.03,-19.98 19.99,-19.98 l 472.09,0 c 21.92,0 39.89,-17.81 39.89,-39.75 l 0,-199.27 c 0,-21.95 -17.97,-39.97 -39.89,-39.97 l -731.17,0 c -21.99,0 -39.86,18.02 -39.86,39.97 l 0,1315.3 c 0,21.86 17.87,39.83 39.86,39.83 l 723.16,0 c 22.03,0 39.89,-17.97 39.89,-39.83 l 0,-199.42 c 0,-21.8 -17.86,-39.83 -39.89,-39.83 l -464.08,0 c -11.96,0 -19.99,-7.98 -19.99,-19.84 l 0,-239.16 c 0,-12.05 8.03,-19.9 19.99,-19.9 l 448.17,0 c 21.95,0 39.88,-18.03 39.88,-39.98 l 0,-199.27 c 0,-21.88 -17.93,-39.75 -39.88,-39.75 l -448.17,0 c -11.96,0 -19.99,-7.99 -19.99,-19.91 l 0,-239.24"></path><path id="path4185" style="fill:#e94e55;fill-opacity:1;fill-rule:nonzero;stroke:none" d="m 8798.96,1839.54 c 0,-11.91 8,-19.98 19.98,-19.98 l 472.24,0 c 21.97,0 39.89,-17.81 39.89,-39.75 l 0,-199.27 c 0,-21.95 -17.92,-39.97 -39.89,-39.97 l -731.38,0 c -21.88,0 -39.82,18.02 -39.82,39.97 l 0,1315.3 c 0,21.86 17.94,39.83 39.82,39.83 l 723.45,0 c 22.07,0 39.81,-17.97 39.81,-39.83 l 0,-199.42 c 0,-21.8 -17.74,-39.83 -39.81,-39.83 l -464.31,0 c -11.98,0 -19.98,-7.98 -19.98,-19.84 l 0,-239.16 c 0,-12.05 8,-19.9 19.98,-19.9 l 448.29,0 c 21.97,0 39.89,-18.03 39.89,-39.98 l 0,-199.27 c 0,-21.88 -17.92,-39.75 -39.89,-39.75 l -448.29,0 c -11.98,0 -19.98,-7.99 -19.98,-19.91 l 0,-239.24"></path><path id="path4187" style="fill:#e94e55;fill-opacity:1;fill-rule:nonzero;stroke:none" d="m 7869.59,324.434 c 0,-12.004 8.03,-19.911 19.99,-19.911 l 472.09,0 c 21.92,0 39.89,-17.968 39.89,-39.968 l 0,-199.2112 c 0,-21.9375 -17.97,-39.8204 -39.89,-39.8204 l -731.17,0 c -21.99,0 -39.86,17.8829 -39.86,39.8204 l 0,1315.2262 c 0,21.95 17.87,40.04 39.86,40.04 l 723.16,0 c 22.03,0 39.89,-18.09 39.89,-40.04 l 0,-199.19 c 0,-21.88 -17.86,-39.82 -39.89,-39.82 l -464.08,0 c -11.96,0 -19.99,-8.08 -19.99,-19.93 l 0,-239.224 c 0,-11.933 8.03,-19.91 19.99,-19.91 l 448.17,0 c 21.95,0 39.88,-17.965 39.88,-39.824 l 0,-199.266 c 0,-21.883 -17.93,-39.84 -39.88,-39.84 l -448.17,0 c -11.96,0 -19.99,-7.914 -19.99,-19.984 l 0,-239.148"></path><path id="path4189" style="fill:#e94e55;fill-opacity:1;fill-rule:nonzero;stroke:none" d="m 8798.96,324.434 c 0,-12.004 8,-19.911 19.98,-19.911 l 472.24,0 c 21.97,0 39.89,-17.968 39.89,-39.968 l 0,-199.2112 c 0,-21.9375 -17.92,-39.8204 -39.89,-39.8204 l -731.38,0 c -21.88,0 -39.82,17.8829 -39.82,39.8204 l 0,1315.2262 c 0,21.95 17.94,40.04 39.82,40.04 l 723.45,0 c 22.07,0 39.81,-18.09 39.81,-40.04 l 0,-199.19 c 0,-21.88 -17.74,-39.82 -39.81,-39.82 l -464.31,0 c -11.98,0 -19.98,-8.08 -19.98,-19.93 l 0,-239.224 c 0,-11.933 8,-19.91 19.98,-19.91 l 448.29,0 c 21.97,0 39.89,-17.965 39.89,-39.824 l 0,-199.266 c 0,-21.883 -17.92,-39.84 -39.89,-39.84 l -448.29,0 c -11.98,0 -19.98,-7.914 -19.98,-19.984 l 0,-239.148"></path><path id="path4191" style="fill:#e94e55;fill-opacity:1;fill-rule:nonzero;stroke:none" d="m 12453.2,3358.13 c -70.7,0 -99.7,37.38 -112.2,70.63 l -565.5,1459.19 c -8.2,24.95 -37.3,16.66 -37.3,-8.3 l 0,-1438.36 c 0,-45.78 -37.5,-83.16 -83.2,-83.16 l -415.8,0 c -45.7,0 -83.2,37.38 -83.2,83.16 l 0,2743.81 c 0,45.75 37.5,83.16 83.2,83.16 l 494.7,0 c 62.4,0 91.5,-37.41 104,-74.82 l 569.6,-1579.87 c 8.3,-24.97 37.4,-16.63 37.4,8.3 l 0,1563.23 c 0,45.75 37.4,83.16 83.1,83.16 l 415.8,0 c 45.8,0 83.1,-37.41 83.1,-83.16 l 0,-2743.81 c 0,-45.78 -37.3,-83.16 -83.1,-83.16 l -490.6,0"></path><path id="path4193" style="fill:#e94e55;fill-opacity:1;fill-rule:nonzero;stroke:none" d="m 7527.02,5686.19 c -24.98,0 -41.58,-16.62 -41.58,-41.55 l 0,-498.9 c 0,-24.96 16.6,-41.59 41.58,-41.59 l 374.17,0 c 158,0 291.01,128.88 291.01,291.03 0,158 -133.01,291.01 -291.01,291.01 l -374.17,0 z m 374.17,582.07 c 478.12,0 873.07,-394.96 873.07,-873.08 0,-482.28 -394.95,-872.97 -873.07,-872.97 l -374.17,0 c -24.98,0 -41.58,-16.58 -41.58,-41.58 l 0,-1039.34 c 0,-45.78 -37.45,-83.16 -83.16,-83.16 l -415.75,0 c -45.71,0 -83.16,37.38 -83.16,83.16 l 0,2743.81 c 0,45.75 37.45,83.16 83.16,83.16 l 914.66,0"></path><path id="path4195" style="fill:#e94e55;fill-opacity:1;fill-rule:nonzero;stroke:none" d="m 9352.96,5172.17 c 0,-11.92 7.92,-19.98 19.99,-19.98 l 472.07,0 c 21.88,0 39.89,-17.81 39.89,-39.76 l 0,-199.27 c 0,-21.93 -18.01,-39.96 -39.89,-39.96 l -731.16,0 c -22.06,0 -39.8,18.03 -39.8,39.96 l 0,1315.28 c 0,21.88 17.74,39.82 39.8,39.82 l 723.14,0 c 21.98,0 39.9,-17.94 39.9,-39.82 l 0,-199.4 c 0,-21.82 -17.92,-39.83 -39.9,-39.83 l -464.05,0 c -12.07,0 -19.99,-7.99 -19.99,-19.84 l 0,-239.16 c 0,-12.06 7.92,-19.91 19.99,-19.91 l 448.12,0 c 21.97,0 39.89,-18.02 39.89,-39.98 l 0,-199.26 c 0,-21.87 -17.92,-39.75 -39.89,-39.75 l -448.12,0 c -12.07,0 -19.99,-7.99 -19.99,-19.91 l 0,-239.23"></path><path id="path4197" style="fill:#e94e55;fill-opacity:1;fill-rule:nonzero;stroke:none" d="m 10282.3,5172.17 c 0,-11.92 8,-19.98 20,-19.98 l 472.2,0 c 22,0 39.9,-17.81 39.9,-39.76 l 0,-199.27 c 0,-21.93 -17.9,-39.96 -39.9,-39.96 l -731.4,0 c -21.8,0 -39.8,18.03 -39.8,39.96 l 0,1315.28 c 0,21.88 18,39.82 39.8,39.82 l 723.5,0 c 22,0 39.8,-17.94 39.8,-39.82 l 0,-199.4 c 0,-21.82 -17.8,-39.83 -39.8,-39.83 l -464.3,0 c -12,0 -20,-7.99 -20,-19.84 l 0,-239.16 c 0,-12.06 8,-19.91 20,-19.91 l 448.3,0 c 21.9,0 39.8,-18.02 39.8,-39.98 l 0,-199.26 c 0,-21.87 -17.9,-39.75 -39.8,-39.75 l -448.3,0 c -12,0 -20,-7.99 -20,-19.91 l 0,-239.23"></path><path id="path4199" style="fill:#e94e55;fill-opacity:1;fill-rule:nonzero;stroke:none" d="m 9352.96,3657.1 c 0,-12.06 7.92,-19.91 19.99,-19.91 l 472.07,0 c 21.88,0 39.89,-17.95 39.89,-39.98 l 0,-199.26 c 0,-21.86 -18.01,-39.82 -39.89,-39.82 l -731.16,0 c -22.06,0 -39.8,17.96 -39.8,39.82 l 0,1315.25 c 0,21.94 17.74,40.04 39.8,40.04 l 723.14,0 c 21.98,0 39.9,-18.1 39.9,-40.04 l 0,-199.16 c 0,-21.88 -17.92,-39.83 -39.9,-39.83 l -464.05,0 c -12.07,0 -19.99,-8.13 -19.99,-19.92 l 0,-239.22 c 0,-11.92 7.92,-19.91 19.99,-19.91 l 448.12,0 c 21.97,0 39.89,-17.95 39.89,-39.82 l 0,-199.27 c 0,-21.88 -17.92,-39.83 -39.89,-39.83 l -448.12,0 c -12.07,0 -19.99,-7.99 -19.99,-20.05 l 0,-239.09"></path><path id="path4201" style="fill:#e94e55;fill-opacity:1;fill-rule:nonzero;stroke:none" d="m 10282.3,3657.1 c 0,-12.06 8,-19.91 20,-19.91 l 472.2,0 c 22,0 39.9,-17.95 39.9,-39.98 l 0,-199.26 c 0,-21.86 -17.9,-39.82 -39.9,-39.82 l -731.4,0 c -21.8,0 -39.8,17.96 -39.8,39.82 l 0,1315.25 c 0,21.94 18,40.04 39.8,40.04 l 723.5,0 c 22,0 39.8,-18.1 39.8,-40.04 l 0,-199.16 c 0,-21.88 -17.8,-39.83 -39.8,-39.83 l -464.3,0 c -12,0 -20,-8.13 -20,-19.92 l 0,-239.22 c 0,-11.92 8,-19.91 20,-19.91 l 448.3,0 c 21.9,0 39.8,-17.95 39.8,-39.82 l 0,-199.27 c 0,-21.88 -17.9,-39.83 -39.8,-39.83 l -448.3,0 c -12,0 -20,-7.99 -20,-20.05 l 0,-239.09"></path><path id="path4203" style="fill:#e94e55;fill-opacity:1;fill-rule:nonzero;stroke:none" d="m 2864.15,5686.23 c -24.95,0 -41.58,-16.66 -41.58,-41.58 l 0,-498.88 c 0,-24.91 16.63,-41.57 41.58,-41.57 l 374.15,0 c 157.98,0 291.01,128.87 291.01,291.05 0,157.91 -133.03,290.98 -291.01,290.98 l -374.15,0 z m 0,-1164.03 c -24.95,0 -41.58,-16.66 -41.58,-41.58 l 0,-1039.33 c 0,-45.78 -37.41,-83.16 -83.12,-83.16 l -415.75,0 c -45.71,0 -83.13,37.38 -83.13,83.16 l 0,2743.82 c 0,45.7 37.42,83.15 83.13,83.15 l 914.6,0 c 478.08,0 873.01,-394.92 873.01,-873.01 0,-320.17 -137.16,-536.32 -432.35,-735.81 -58.19,-41.59 -54.04,-74.91 -24.95,-137.24 l 444.84,-1039.33 c 29.08,-62.3 4.16,-124.74 -78.99,-124.74 l -428.19,0 c -66.53,0 -99.78,33.32 -120.57,83.16 l -424.05,1026.87 c -8.28,20.72 -29.07,54.04 -74.82,54.04 l -108.08,0"></path><path id="path4205" style="fill:#e94e55;fill-opacity:1;fill-rule:nonzero;stroke:none" d="m 5129.51,5298.73 c 19.81,166.84 19.81,389.32 0,556.16 -10.02,87.31 -71.51,158.88 -192.65,158.88 -121.16,0 -182.79,-71.57 -192.65,-158.88 -19.89,-166.84 -19.89,-389.32 0,-556.16 9.86,-87.37 71.49,-158.89 192.65,-158.89 121.14,0 182.63,71.52 192.65,158.89 z m 280.02,556.16 c 19.82,-166.84 19.82,-389.32 0,-556.16 -27.85,-238.35 -198.64,-438.97 -472.67,-438.97 -274.17,0 -444.97,200.62 -472.75,438.97 -19.88,166.84 -19.88,389.32 0,556.16 27.78,238.35 198.58,438.9 472.75,438.9 274.03,0 444.82,-200.55 472.67,-438.9"></path><path id="path4207" style="fill:#e94e55;fill-opacity:1;fill-rule:nonzero;stroke:none" d="m 6236.77,5298.73 c 19.74,166.84 19.74,389.32 0,556.16 -10.01,87.31 -71.51,158.88 -192.73,158.88 -121.08,0 -182.71,-71.57 -192.58,-158.88 -19.95,-166.84 -19.95,-389.32 0,-556.16 9.87,-87.37 71.5,-158.89 192.58,-158.89 121.22,0 182.72,71.52 192.73,158.89 z m 279.95,556.16 c 19.89,-166.84 19.89,-389.32 0,-556.16 -27.78,-238.35 -198.58,-438.97 -472.68,-438.97 -274.09,0 -444.89,200.62 -472.67,438.97 -19.89,166.84 -19.89,389.32 0,556.16 27.78,238.35 198.58,438.9 472.67,438.9 274.1,0 444.9,-200.55 472.68,-438.9"></path><path id="path4209" style="fill:#e94e55;fill-opacity:1;fill-rule:nonzero;stroke:none" d="m 5129.51,3771.5 c 19.81,166.84 19.81,389.26 0,556.11 -10.02,87.28 -71.51,158.93 -192.65,158.93 -121.16,0 -182.79,-71.65 -192.65,-158.93 -19.89,-166.85 -19.89,-389.27 0,-556.11 9.86,-87.29 71.49,-158.8 192.65,-158.8 121.14,0 182.63,71.51 192.65,158.8 z m 280.02,556.11 c 19.82,-166.85 19.82,-389.27 0,-556.11 -27.85,-238.34 -198.64,-438.89 -472.67,-438.89 -274.17,0 -444.97,200.55 -472.75,438.89 -19.88,166.84 -19.88,389.26 0,556.11 27.78,238.27 198.58,438.43 472.75,438.43 274.03,0 444.82,-200.16 472.67,-438.43"></path><path id="path4211" style="fill:#e94e55;fill-opacity:1;fill-rule:nonzero;stroke:none" d="m 6236.77,3771.5 c 19.74,166.84 19.74,389.26 0,556.11 -10.01,87.28 -71.51,158.93 -192.73,158.93 -121.08,0 -182.71,-71.65 -192.58,-158.93 -19.95,-166.85 -19.95,-389.27 0,-556.11 9.87,-87.29 71.5,-158.8 192.58,-158.8 121.22,0 182.72,71.51 192.73,158.8 z m 279.95,556.11 c 19.89,-166.85 19.89,-389.27 0,-556.11 -27.78,-238.34 -198.58,-438.89 -472.68,-438.89 -274.09,0 -444.89,200.55 -472.67,438.89 -19.89,166.84 -19.89,389.26 0,556.11 27.78,238.27 198.58,438.43 472.67,438.43 274.1,0 444.9,-200.16 472.68,-438.43"></path><path id="path4213" style="fill:#e94e55;fill-opacity:1;fill-rule:nonzero;stroke:none" d="m 1226.45,5644.64 0,-2203.35 c 0,-45.78 -37.38,-83.16 -83.16,-83.16 l -415.751,0 c -45.715,0 -83.09,37.38 -83.09,83.16 l 0,2203.35 c 0,24.93 -16.664,41.55 -41.582,41.55 l -519.7068,0 C 37.457,5686.19 0,5723.64 0,5769.35 l 0,415.75 c 0,45.75 37.457,83.16 83.1602,83.16 l 1704.5798,0 c 45.71,0 83.16,-37.41 83.16,-83.16 l 0,-415.75 c 0,-45.71 -37.45,-83.16 -83.16,-83.16 l -519.7,0 c -24.93,0 -41.59,-16.62 -41.59,-41.55"></path></g></g></svg>
